<svg xmlns="http://www.w3.org/2000/svg" xmlns:xlink="http://www.w3.org/1999/xlink" viewBox="0 0 31 33">
  <defs>
    <linearGradient id="ss-grad1" x1="15.39" y1="6.11" x2="15.39" y2="34.83" gradientUnits="userSpaceOnUse">
      <stop offset="0" stop-color="#dadada"/>
      <stop offset="1" stop-color="#efefef"/>
    </linearGradient>
    <linearGradient id="ss-grad2" x1="14.42" y1="27.25" x2="14.42" y2="35.04" gradientUnits="userSpaceOnUse">
      <stop offset="0" stop-color="#c2c2c2"/>
      <stop offset="1" stop-color="#e0e0e0"/>
    </linearGradient>
  </defs>
  <path fill="url(#ss-grad1)" fill-rule="evenodd" d="M3.61,34.83A11.37,11.37,0,0,0,4,31.78c0-1.86,0-25.68,0-25.68H27.12s.17,19.87-.19,23.5c-.24,2.41-1.25,2.61-2.83.74a15.54,15.54,0,0,1-1.75-3s-2.68,2.67-9.71,5.2A50.27,50.27,0,0,1,3.61,34.83Z" transform="translate(-2.67 -2.39)"/>
  <path fill="url(#ss-grad2)" fill-rule="evenodd" d="M2.92,35a.13.13,0,0,1,0-.25,54.74,54.74,0,0,0,9.69-2.33c6.91-2.49,9.64-5.14,9.67-5.17a.13.13,0,0,1,.09,0h0a.13.13,0,0,1,.09.07,15.49,15.49,0,0,0,1.73,2.94c.69.81,1.23,1.22,1.6,1.22h.13a.13.13,0,0,1,0,.25C22.16,32.55,3.13,35,2.93,35Z" transform="translate(-2.67 -2.39)"/>
  <path fill="#fff" d="M22.35,27.38a15.54,15.54,0,0,0,1.75,3c.65.77,1.24,1.26,1.7,1.26h.13c-3.83.84-23,3.31-23,3.31a54.44,54.44,0,0,0,9.72-2.33c7-2.53,9.71-5.2,9.71-5.2m0-.25a.25.25,0,0,0-.18.07s-2.74,2.67-9.62,5.14a54.59,54.59,0,0,1-9.66,2.32.25.25,0,0,0,0,.5h0c.19,0,19.23-2.48,23-3.32a.25.25,0,0,0-.05-.49H25.8c-.23,0-.68-.2-1.51-1.17a15.37,15.37,0,0,1-1.71-2.91.25.25,0,0,0-.18-.14Z" transform="translate(-2.67 -2.39)"/>
  <path fill="#295177" d="M32.39,2.39S21,9.58,16.06,22.18l-.73-1.46c-1.47-2.92-2.05-3.88-3.13-4a5,5,0,0,0-3.79,2A4.38,4.38,0,0,1,11,20.48c.32.47,4.17,9.25,4.17,9.25S23.23,7.8,33.58,2.89Z" transform="translate(-2.67 -2.39)"/>
</svg>
